<svg width="108" height="41" viewBox="0 0 108 41" fill="none" xmlns="http://www.w3.org/2000/svg">
<path d="M19.2976 15.9045V25.595M17.0952 13.7021H7.40477M17.0952 27.7974H7.40477M5.20239 15.9045V25.595" stroke="white" stroke-width="1.5"/>
<circle cx="19.2976" cy="13.7024" r="2.20238" stroke="white" stroke-width="1.5"/>
<circle cx="5.20238" cy="13.7024" r="2.20238" stroke="white" stroke-width="1.5"/>
<circle cx="19.2976" cy="27.7976" r="2.20238" stroke="white" stroke-width="1.5"/>
<circle cx="5.20238" cy="27.7976" r="2.20238" stroke="white" stroke-width="1.5"/>
<path d="M36.471 15.028C32.407 15.028 29.719 17.012 29.719 20.276C29.719 23.22 31.895 24.596 35.063 25.396C38.007 26.132 39.127 26.868 39.127 28.18C39.127 29.428 38.039 30.036 36.631 30.036C35.095 30.036 33.815 29.172 33.463 27.316H29.047C29.527 31.156 32.439 32.948 36.567 32.948C40.471 32.948 43.575 31.284 43.575 27.86C43.575 24.724 41.527 23.316 38.039 22.42C35.223 21.716 34.167 21.044 34.167 19.764C34.167 18.708 34.871 17.94 36.183 17.94C37.655 17.94 38.519 18.836 38.807 20.404H43.223C42.839 17.3 40.535 15.028 36.471 15.028ZM53.6573 15.028C48.9852 15.028 45.1453 18.292 45.1453 24.116C45.1453 30.004 48.6333 32.948 53.2733 32.948C57.5293 32.948 60.6653 30.804 61.4013 26.612H56.9853C56.5373 28.756 55.2573 29.844 53.5293 29.844C51.3213 29.844 49.7213 28.052 49.7213 23.828C49.7213 19.956 51.3213 18.132 53.5613 18.132C55.3853 18.132 56.6653 19.156 57.0813 21.62H61.4333C61.1133 17.844 58.2653 15.028 53.6573 15.028ZM74.1228 32.5H78.4428C78.1868 30.612 78.1228 29.46 78.1228 28.18V22.676C78.1228 21.748 78.0908 20.852 78.0268 20.052C77.7708 17.108 75.9788 15.028 71.2108 15.028C67.1468 15.028 64.0428 17.204 63.9148 21.044L68.2028 21.012C68.3308 19.156 69.2908 18.132 71.0508 18.132C72.7788 18.132 73.5468 18.996 73.6748 20.18C73.7388 20.756 73.7388 21.268 73.7388 21.78V22.132H72.6508C66.4748 22.132 63.2747 24.244 63.2747 27.988C63.2747 31.22 65.8028 32.948 68.7468 32.948C70.3468 32.948 71.7868 32.628 72.9708 31.828L73.8028 30.004L74.1228 32.5ZM70.4427 29.844C68.8748 29.844 67.8508 29.14 67.8508 27.636C67.8508 25.396 70.2188 24.596 73.7388 24.852V26.228C73.7388 28.596 72.2348 29.844 70.4427 29.844ZM86.4915 8.98H82.0755V27.028C82.0755 28.148 82.0755 28.948 82.1395 29.716C82.2355 31.924 83.6115 32.724 85.7875 32.724C86.7795 32.724 87.6435 32.692 88.5075 32.596V29.556C87.0035 29.652 86.6195 29.364 86.5235 28.5C86.4915 28.052 86.4915 27.604 86.4915 26.932V8.98ZM106.597 23.636C106.597 18.996 103.845 15.028 98.629 15.028C93.413 15.028 89.989 18.836 89.989 24.052C89.989 30.036 93.605 32.948 98.277 32.948C102.277 32.948 105.477 30.932 106.341 26.964H101.925C101.637 28.788 100.261 29.844 98.373 29.844C96.325 29.844 94.725 28.724 94.437 25.14H106.533C106.597 24.564 106.597 24.052 106.597 23.636ZM98.437 18.132C100.549 18.132 101.765 19.572 102.053 22.26H94.565C94.949 19.444 96.389 18.132 98.437 18.132Z" fill="white"/>
</svg>
